<svg width="33" height="33" viewBox="0 0 33 33" fill="none" xmlns="http://www.w3.org/2000/svg">
<path d="M16.5 0C7.39895 0 0 7.39895 0 16.5C0 25.6011 7.39895 33 16.5 33C25.6011 33 33 25.6011 33 16.5C33 7.39895 25.6011 0 16.5 0ZM23.4474 18.2368H16.5C15.5447 18.2368 14.7632 17.4553 14.7632 16.5V7.81579C14.7632 6.86053 15.5447 6.07895 16.5 6.07895C17.4553 6.07895 18.2368 6.86053 18.2368 7.81579V14.7632H23.4474C24.4026 14.7632 25.1842 15.5447 25.1842 16.5C25.1842 17.4553 24.4026 18.2368 23.4474 18.2368Z" fill="#872F90"/>
</svg>
