<svg width="63" height="63" viewBox="0 0 63 63" fill="none" xmlns="http://www.w3.org/2000/svg">
<path d="M36.75 26.25C36.75 29.1375 34.3875 31.5 31.5 31.5C28.6125 31.5 26.25 29.1375 26.25 26.25C26.25 23.3625 28.6125 21 31.5 21C34.3875 21 36.75 23.3625 36.75 26.25ZM51.1875 26.25C51.1875 42.21 38.9288 52.2112 33.6788 55.755C33.0225 56.2275 32.2612 56.4375 31.5 56.4375C30.7388 56.4375 29.9775 56.2275 29.295 55.755C24.045 52.2112 11.8125 42.2363 11.8125 26.25C11.8125 15.015 20.265 6.5625 31.5 6.5625C42.7088 6.5625 51.1875 15.015 51.1875 26.25ZM42 26.25C42 20.4487 37.3013 15.75 31.5 15.75C25.6987 15.75 21 20.4487 21 26.25C21 32.0513 25.6987 36.75 31.5 36.75C37.3013 36.75 42 32.0513 42 26.25Z" fill="#872F90"/>
</svg>
