<svg width="53" height="50" viewBox="0 0 53 50" fill="none" xmlns="http://www.w3.org/2000/svg">
<path d="M11.6841 39.5263V10.4737C11.6841 5.79382 15.4779 2.00002 20.1578 2.00002L32.263 2.00001C36.9429 2 40.7367 5.7938 40.7367 10.4737V39.5263C40.7367 44.2062 36.9429 48 32.263 48H20.1578C15.4779 48 11.6841 44.2062 11.6841 39.5263Z" stroke="#872F90" stroke-width="3.63158"/>
<path d="M43.1577 11.6846H45.5788C48.253 11.6846 50.4209 13.8525 50.4209 16.5267V33.474C50.4209 36.1483 48.253 38.3161 45.5788 38.3161H43.1577" stroke="#872F90" stroke-width="3.63158"/>
<path d="M9.26318 11.6846H6.84213C4.16791 11.6846 2.00003 13.8525 2.00003 16.5267V33.474C2.00003 36.1483 4.16791 38.3161 6.84213 38.3161H9.26318" stroke="#872F90" stroke-width="3.63158"/>
</svg>
